# xmcd
#
# Track frame offsets:
# 182
# 19352
# 40290
# 57547
# 77002
# 98560
# 118297
# 134900
# 157565
# 178035
#
# Disc length: 2580 seconds
#
#
# Revision: 1
# Processed by: cddbd v1.5.2PL0 Copyright (c) Steve Scherf et al.
# Submitted via: FreeRIP 2.96 
#
DISCID=850a120a
DTITLE=Barflys, The [AUS] - Too Busy Lookin' Good
DYEAR=1996
DGENRE=Blues
TTITLE0=Got to Get Away [from 'Too Busy Lookin' Good', 1996] [MLVox]
TTITLE1=Playin' to the System [from 'Too Busy Lookin' Good', 1996] [MLVox]
TTITLE2=The Devil Himself [from 'Too Busy Lookin' Good', 1996] [MLVox]
TTITLE3=Too Busy Lookin' Good [from 'Too Busy Lookin' Good', 1996] [MLVox]
TTITLE4=Comin' Home [from 'Too Busy Lookin' Good', 1996] [MLVox]
TTITLE5=Judgin' Me [from 'Too Busy Lookin' Good', 1996] [MLVox]
TTITLE6=Bluesman [from 'Too Busy Lookin' Good', 1996] [MLVox]
TTITLE7=Whinging [from 'Too Busy Lookin' Good', 1996] [MLVox]
TTITLE8=Ratdog [from 'Too Busy Lookin' Good', 1996] [MLVox]
TTITLE9=Barfly Rap [from 'Too Busy Lookin' Good', 1996] [MLVox]
EXTD=Australian band originating from Port Adelaide, South Australia
EXTT0=
EXTT1=
EXTT2=
EXTT3=
EXTT4=
EXTT5=
EXTT6=
EXTT7=
EXTT8=
EXTT9=
PLAYORDER=
